<?xml version="1.0" encoding="UTF-8"?>
<svg version="1.1" xmlns="http://www.w3.org/2000/svg" width="512" height="512">
<path d="M0 0 C1.6596765 -0.00346049 3.31935069 -0.00822767 4.97902012 -0.01418173 C9.52061623 -0.02666767 14.06202244 -0.02053232 18.6036191 -0.01122308 C23.50894213 -0.00442306 28.41423297 -0.01491854 33.31954956 -0.02316284 C42.92154398 -0.03649218 52.52346799 -0.03362598 62.12546515 -0.02492492 C69.93025779 -0.01814565 77.73503071 -0.01723271 85.53982544 -0.02049637 C86.65127853 -0.02095607 87.76273162 -0.02141577 88.90786511 -0.0218894 C91.16586646 -0.02284859 93.42386781 -0.02382123 95.68186915 -0.02480717 C116.84769677 -0.03335872 138.0134854 -0.0235306 159.17930663 -0.00740607 C177.33464517 0.00599689 195.48992617 0.00366873 213.64526367 -0.01016235 C234.73613272 -0.02622229 255.8269676 -0.03253477 276.91784191 -0.02332556 C279.16746711 -0.02236993 281.41709232 -0.02142682 283.66671753 -0.02049637 C285.32694052 -0.01980213 285.32694052 -0.01980213 287.02070338 -0.01909386 C294.81476479 -0.01650522 302.6088045 -0.02087227 310.40286255 -0.02793503 C319.90315123 -0.03635481 329.40336557 -0.03405978 338.90364575 -0.0180928 C343.74943333 -0.01021657 348.59509701 -0.00710749 353.44088364 -0.01704025 C357.87964229 -0.026001 362.31816258 -0.02103156 366.75689971 -0.0051076 C368.3597267 -0.00176564 369.96257397 -0.00344065 371.56538785 -0.01073496 C385.17047639 -0.06788538 396.08934644 1.47380896 406.35717773 11.00985718 C412.97917695 18.16294405 415.72342546 26.55830741 415.73749256 36.15183353 C415.73984479 36.83525632 415.74219702 37.5186791 415.74462053 38.22281167 C415.75130246 40.52367399 415.75085255 42.82447974 415.7504425 45.12535095 C415.75374164 46.78738378 415.75746731 48.4494158 415.76158398 50.1114468 C415.77160657 54.68740968 415.7753212 59.26335944 415.77797329 63.83933175 C415.78187559 68.77135725 415.79145401 73.70337236 415.80018616 78.63539124 C415.81995298 90.5508238 415.83001719 102.46625723 415.83891395 114.3817021 C415.84329661 119.9923576 415.84866349 125.60301216 415.85390282 131.21366692 C415.87091554 149.86401581 415.88540973 168.51436412 415.89265156 187.16471958 C415.89456147 192.00510725 415.8964818 196.84549492 415.8984375 201.68588257 C415.89892124 202.88894352 415.89940498 204.09200446 415.89990338 205.3315218 C415.90820373 224.82044294 415.93354054 244.3093027 415.96601818 263.79819704 C415.99908757 283.80524758 416.01710023 303.81226692 416.0202958 323.81934494 C416.02246103 335.05327817 416.03121172 346.28712191 416.05675697 357.52102852 C416.07846232 367.08841022 416.08651518 376.65568069 416.07679019 386.22308422 C416.072245 391.1034289 416.07414455 395.98354406 416.09355164 400.86385727 C416.11118035 405.33564278 416.11018792 409.80703128 416.09465434 414.27882098 C416.09227783 415.89261941 416.09660408 417.50644531 416.10848299 419.12020177 C416.19618486 431.82624625 414.6450146 442.83572328 405.60327148 452.38095093 C395.37497567 462.06973223 383.47574438 462.97033265 370.01708984 462.8888855 C368.34901098 462.89350062 366.6809362 462.89985763 365.01286983 462.90779448 C360.45261174 462.92442702 355.89269031 462.91626919 351.33243132 462.9038496 C346.40528348 462.89477647 341.47819237 462.90878005 336.55105591 462.91976929 C326.90807138 462.93753495 317.26521155 462.93372321 307.62222219 462.92211872 C299.78360933 462.913077 291.94503137 462.9118636 284.10641479 462.91621399 C282.43154539 462.91713339 282.43154539 462.91713339 280.72284025 462.91807136 C278.45437216 462.91935029 276.18590408 462.92064714 273.917436 462.92196172 C252.65713719 462.93336181 231.39690742 462.92026278 210.13661993 462.89876026 C191.90313848 462.88088981 173.66975891 462.88399408 155.4362793 462.9024353 C134.25089752 462.92385209 113.06557622 462.93226322 91.88018513 462.91998625 C89.62016615 462.91871208 87.36014717 462.9174546 85.10012817 462.91621399 C83.4322664 462.91528834 83.4322664 462.91528834 81.73071045 462.91434398 C73.90353786 462.91089352 66.0764037 462.9167129 58.24923706 462.9261322 C48.70762444 462.93736253 39.1661434 462.93429033 29.62454581 462.91300923 C24.75834268 462.9025128 19.89235878 462.89835303 15.02615738 462.91160583 C10.56758191 462.92356466 6.10942795 462.91690985 1.65089047 462.89569563 C0.04202092 462.89124432 -1.56688458 462.89346259 -3.17573082 462.90319878 C-16.56004954 462.97795395 -27.55689204 461.08652063 -37.39672852 451.38095093 C-46.35137846 440.83915296 -46.838155 429.27280996 -46.77767944 415.98422241 C-46.78113993 414.32454591 -46.78590711 412.66487172 -46.79186118 411.00520229 C-46.80434711 406.46360618 -46.79821177 401.92219998 -46.78890252 397.38060331 C-46.7821025 392.47528029 -46.79259799 387.56998944 -46.80084229 382.66467285 C-46.81417163 373.06267843 -46.81130543 363.46075442 -46.80260436 353.85875726 C-46.79582509 346.05396463 -46.79491215 338.24919171 -46.79817581 330.44439697 C-46.79863551 329.33294388 -46.79909521 328.22149079 -46.79956884 327.07635731 C-46.80052803 324.81835595 -46.80150067 322.5603546 -46.80248661 320.30235326 C-46.81103817 299.13652564 -46.80121004 277.97073701 -46.78508551 256.80491579 C-46.77168255 238.64957724 -46.77401071 220.49429625 -46.7878418 202.33895874 C-46.80390174 181.24808969 -46.81021422 160.15725481 -46.80100501 139.0663805 C-46.80004937 136.8167553 -46.79910626 134.56713009 -46.79817581 132.31750488 C-46.79771299 131.21068955 -46.79725016 130.10387422 -46.79677331 128.96351904 C-46.79418467 121.16945763 -46.79855171 113.37541791 -46.80561447 105.58135986 C-46.81403425 96.08107118 -46.81173923 86.58085684 -46.79577224 77.08057666 C-46.78789601 72.23478908 -46.78478693 67.3891254 -46.7947197 62.54333878 C-46.80368044 58.10458012 -46.798711 53.66605983 -46.78278704 49.2273227 C-46.77944509 47.62449571 -46.78112009 46.02164844 -46.7884144 44.41883457 C-46.84413646 31.15377764 -45.49600997 20.57488278 -36.39672852 10.38095093 C-25.51220314 0.66523365 -14.0176637 -0.06379354 0 0 Z " fill="#8534BF" transform="translate(71.396728515625,24.619049072265625)"/>
<path d="M0 0 C5.67420636 -0.07460523 11.34812208 -0.12881608 17.02270508 -0.16479492 C18.94983906 -0.17980652 20.87693932 -0.20022216 22.80395508 -0.22631836 C25.58683639 -0.26303943 28.36926288 -0.27980292 31.15234375 -0.29296875 C32.00271713 -0.30845261 32.85309052 -0.32393646 33.72923279 -0.33988953 C43.61601862 -0.342621 51.33972306 2.67259998 58.625 9.4375 C66.08155339 19.06028512 67.52877084 35.96600591 70.32421875 47.58984375 C70.8347019 49.69991288 71.34551737 51.80990163 71.85664368 53.91981506 C73.19990087 59.46911064 74.53819192 65.01959262 75.87554932 70.5703125 C76.94168812 74.99162692 78.01142233 79.41206733 79.08135796 83.83246422 C87.63033723 119.15460907 87.63033723 119.15460907 91.74072266 136.59423828 C91.95317658 137.49507047 92.16563051 138.39590265 92.38452244 139.32403278 C93.37327444 143.519048 94.35878253 147.7147835 95.33879089 151.91184998 C95.68129864 153.37036219 96.0238505 154.82886405 96.36645508 156.28735352 C96.65990311 157.54387222 96.95335114 158.80039093 97.25569153 160.09498596 C97.86897683 162.91397448 97.86897683 162.91397448 99 165 C102.97313079 148.34378235 106.94596176 131.68749322 110.91844559 115.03112125 C112.76336181 107.29553514 114.60837244 99.55997157 116.45361328 91.82446289 C118.06381156 85.07428452 119.6738246 78.32406199 121.28362441 71.57378858 C122.29938236 67.31450692 123.31534549 63.05527428 124.33147502 58.79608124 C124.81299449 56.77753057 125.29436727 54.75894498 125.77569199 52.74034786 C126.38127132 50.2009048 126.98716813 47.66153741 127.59341812 45.12225437 C128.83314848 39.92432679 130.06833204 34.7257004 131.27185059 29.51925659 C131.54845079 28.32582846 131.54845079 28.32582846 131.83063889 27.10829067 C132.29212981 25.11030451 132.74942092 23.11134944 133.20623779 21.11228943 C135.23558563 13.15534996 138.90259516 7.40105952 146 3 C152.40167781 0.2550117 158.15748682 -0.41561371 165.06640625 -0.29296875 C165.98590561 -0.28872391 166.90540497 -0.28447906 167.85276794 -0.28010559 C170.75632459 -0.26346776 173.65915726 -0.22584467 176.5625 -0.1875 C178.54491177 -0.17243386 180.52733454 -0.15874886 182.50976562 -0.14648438 C187.34011778 -0.11361326 192.16993664 -0.06193611 197 0 C191.93582743 20.02052325 186.29254008 39.87168295 180.65821838 59.73722076 C179.32724328 64.43219532 177.99913102 69.12797944 176.67089844 73.82373047 C175.04011137 79.5886557 173.40920017 85.35354545 171.77722168 91.11813354 C166.79693772 108.71020661 161.832238 126.30664758 156.8752861 143.90530777 C156.25215018 146.1173671 155.62880843 148.32936832 155.00540161 150.54135132 C151.02884716 164.65154943 147.05872061 178.7634127 143.12890625 192.88671875 C142.83847443 193.93013428 142.5480426 194.9735498 142.24880981 196.04858398 C140.94081351 200.74972239 139.63542969 205.45155882 138.33496094 210.15478516 C137.89651264 211.73470837 137.45803806 213.31462428 137.01953125 214.89453125 C136.82581436 215.59897873 136.63209747 216.30342621 136.43251038 217.02922058 C135.11313149 221.77373702 135.11313149 221.77373702 134 224 C110.57 224 87.14 224 63 224 C52.59604758 188.17608134 42.43812337 152.29102107 32.3848114 116.36763 C32.14023382 115.4936941 31.89565624 114.61975819 31.64366722 113.71933937 C31.14944154 111.9532856 30.65525133 110.18722191 30.16109657 108.4211483 C26.54043566 95.48222661 22.90384533 82.5478795 19.25390625 69.6171875 C18.79166556 67.97913281 18.329431 66.34107639 17.86720276 64.70301819 C16.11598917 58.49778856 14.36466824 52.29259067 12.60952759 46.08847046 C8.27333156 30.76009629 3.9594802 15.43109102 0 0 Z " fill="#FEFEFE" transform="translate(250,144)"/>
<path d="M0 0 C20.25375 -0.0825 40.5075 -0.165 61.375 -0.25 C67.75763184 -0.28641602 74.14026367 -0.32283203 80.71630859 -0.36035156 C88.54223633 -0.37841797 88.54223633 -0.37841797 92.21206665 -0.3817749 C94.76165564 -0.38789586 97.31123343 -0.40191979 99.86074829 -0.42230225 C103.7346797 -0.4517105 107.60790678 -0.45561973 111.48193359 -0.45410156 C112.60762945 -0.468494 113.73332531 -0.48288643 114.89313316 -0.497715 C122.88102941 -0.45599413 130.31394924 0.69200572 136.4375 6.1875 C143.27952504 18.50314508 141 26.73773827 141 42 C112.95 42 84.9 42 56 42 C56 55.86 56 69.72 56 84 C59.63773438 83.96519531 63.27546875 83.93039063 67.0234375 83.89453125 C70.57144385 83.87109244 74.11944137 83.85290045 77.66748047 83.83520508 C80.12129619 83.82017776 82.57508533 83.7997502 85.02880859 83.77368164 C88.56875192 83.7370318 92.10833814 83.72021245 95.6484375 83.70703125 C97.277173 83.68380547 97.277173 83.68380547 98.93881226 83.66011047 C106.88748495 83.65837917 114.51936847 84.25992837 120.9375 89.3125 C130.13694876 101.2996605 126 107.41141375 126 126 C102.9 126 79.8 126 56 126 C56 144.48 56 162.96 56 182 C86.03 182 116.06 182 147 182 C147 210 147 210 143 218 C138.32690317 222.55327384 133.82186982 224.25273252 127.34953308 224.24050903 C126.22590709 224.24326403 125.10228109 224.24601902 123.94460583 224.2488575 C122.71660417 224.24166128 121.4886025 224.23446507 120.22338867 224.22705078 C118.24500362 224.22741239 118.24500362 224.22741239 116.22665119 224.2277813 C112.66535033 224.22823202 109.10418442 224.21665702 105.54291534 224.20256042 C102.19873936 224.19115386 98.8545691 224.19063327 95.51037598 224.18920898 C85.73606618 224.17872259 75.96178137 224.1508002 66.1875 224.125 C44.345625 224.08375 22.50375 224.0425 0 224 C0 150.08 0 76.16 0 0 Z " fill="#FEFEFE" transform="translate(82,144)"/>
</svg>
